<svg width="150" height="108" viewBox="0 0 150 108" fill="none" xmlns="http://www.w3.org/2000/svg">
<g filter="url(#filter0_d_872_9382)">
<path d="M60.2581 21.0258C55.2896 21.0258 50.3191 21.0451 45.3486 21.0161C43.0386 21.0044 41.6523 19.3005 42.2506 17.2345C42.5488 16.1889 43.2458 15.457 44.3708 15.2788C44.9445 15.1939 45.5239 15.1544 46.1038 15.1607C55.3644 15.1517 64.6257 15.1517 73.8877 15.1607C74.8094 15.1607 75.307 14.9109 75.6691 13.968C77.7777 8.48631 81.6232 4.55757 86.8996 2.11009C88.77 1.24263 90.8186 0.816644 92.9021 0.504901C95.1015 0.18967 97.3396 0.27033 99.5107 0.743067C102.698 1.40722 105.788 2.59417 108.288 4.79186C109.808 6.1279 111.09 7.73115 112.494 9.2008C112.783 9.47098 113.091 9.72195 113.413 9.95208C113.667 9.62098 113.994 9.31891 114.165 8.95102C115.164 6.91791 116.147 4.8848 117.1 2.82458C117.576 1.79641 118.089 0.917333 119.292 0.518456C120.541 0.102153 121.457 0.485541 122.305 1.31234C123.223 2.20884 123.339 3.33189 122.853 4.41041C121.567 7.28774 120.188 10.1244 118.839 12.9727C118.364 13.9757 117.853 14.9593 117.385 15.9643C117.144 16.4813 117.4 16.8162 117.878 17.035L128.735 22.0113C130.284 22.7239 131.095 23.8353 130.993 25.2314C130.881 26.7959 129.498 28.4727 127.401 27.7621C125.453 27.1038 123.594 26.1666 121.716 25.3108C119.633 24.3601 117.574 23.3493 115.493 22.3947C114.926 22.1353 114.476 22.263 114.172 22.9175C112.155 27.2761 110.093 31.6173 108.073 35.9739C105.931 40.5901 103.831 45.2236 101.695 49.8417C100.212 53.054 98.7323 56.2702 97.1832 59.4515C96.5443 60.7643 95.3805 61.3588 93.8915 61.3568C85.5977 61.3452 77.3046 61.3413 69.0121 61.3452C63.0431 61.3452 57.0729 61.3497 51.1014 61.3588C49.349 61.3588 48.226 60.6114 47.4786 58.9636C45.5423 54.7037 43.453 50.5078 41.4761 46.2634C39.3229 41.6454 37.2433 36.9924 35.1018 32.3686C33.7464 29.4486 32.3387 26.5597 30.962 23.6456C29.4768 20.5088 30.3172 21.0529 26.7157 21.0296C19.5514 20.9851 12.3871 21.0025 5.22281 20.9657C4.52365 20.9547 3.82924 20.8485 3.15872 20.6501C1.92724 20.2996 1.36377 18.555 1.51674 17.5888C1.61446 16.9843 1.90701 16.4283 2.34987 16.0053C2.79273 15.5824 3.36165 15.3157 3.97003 15.2459C4.5479 15.1722 5.13018 15.1386 5.71269 15.1452C13.909 15.1452 22.1054 15.184 30.3036 15.1317C33.9361 15.1084 33.8858 16.0088 35.1231 18.404C36.1725 20.4371 37.0477 22.5612 37.9965 24.6466C39.1428 27.1638 40.2775 29.681 41.4335 32.1982C41.8265 33.1074 42.2793 33.9897 42.7889 34.8393C42.9573 35.1084 43.4821 35.273 43.848 35.2788C46.1057 35.3156 48.3654 35.2943 50.625 35.2924C56.4675 35.2924 62.3086 35.2924 68.1485 35.2924C72.3425 35.2924 75.3864 33.3851 77.1 29.5745C78.2753 26.9644 77.9771 24.3368 76.6779 21.7983C76.339 21.1361 75.8395 21.0238 75.1792 21.0238C70.2087 21.0393 65.2402 21.0238 60.2697 21.0238L60.2581 21.0258ZM45.8424 41.3781C46.0728 41.9823 46.1948 42.3773 46.3691 42.7471C48.2124 46.6197 50.1177 50.4787 51.872 54.3997C52.2341 55.2072 52.6601 55.3679 53.3649 55.3834C53.7851 55.3834 54.2052 55.3834 54.6235 55.3834C66.7576 55.3834 78.8917 55.3834 91.0258 55.3834C91.4118 55.4052 91.7987 55.3654 92.1721 55.2652C92.4608 55.1615 92.7008 54.9546 92.8459 54.6844C94.395 51.3927 95.8801 48.0835 97.4195 44.7918C99.7643 39.7749 102.14 34.7715 104.499 29.7584C106.241 26.0795 107.984 22.3831 109.684 18.6809C109.878 18.2433 110.062 17.6508 109.934 17.2229C108.966 13.9931 107.204 11.2823 104.473 9.23372C100.295 6.09886 95.6148 5.57025 90.7741 6.98181C86.7331 8.16876 83.7279 10.835 81.8091 14.636C80.6589 16.9189 80.7364 16.8685 81.8943 19.1146C82.6029 20.4894 83.2497 21.99 83.4646 23.4984C83.786 25.7755 83.817 28.0932 83.1025 30.38C82.1104 33.6614 80.0363 36.5102 77.2181 38.4621C74.5073 40.3809 71.4944 41.1555 68.195 41.1342C61.2243 41.0858 54.2537 41.1167 47.283 41.1342C46.8183 41.1342 46.3536 41.2871 45.8424 41.3781Z" fill="#FFAE42"/>
<path d="M109.175 93.8642C109.175 92.3926 109.148 91.105 109.199 89.8212C109.199 89.5559 109.454 89.2403 109.673 89.0467C110.974 87.8849 112.291 86.7451 113.623 85.6272C113.863 85.4336 114.204 85.36 114.51 85.2399L114.173 84.7559H103.775V78.2383H123.525C123.525 80.223 123.547 82.1496 123.502 84.0762C123.502 84.3299 123.194 84.6184 122.966 84.8159C121.362 86.21 119.744 87.5828 118.04 89.0409C118.413 89.1493 118.673 89.2345 118.936 89.3003C122.315 90.1581 124.536 92.592 124.83 95.7908C125.192 99.7021 123.669 102.792 120.332 104.2C115.738 106.136 111.083 106.071 106.585 103.85C104.325 102.738 102.948 100.833 102.393 98.2692C104.695 97.8007 106.96 97.3224 109.235 96.9022C109.462 96.8596 109.871 97.1094 109.998 97.334C111.119 99.3323 113.871 100.118 115.885 98.9663C116.853 98.4087 117.24 97.5334 117.18 96.4491C117.114 95.3183 116.456 94.5593 115.437 94.2321C114.633 94.0073 113.802 93.8889 112.967 93.8797C111.741 93.8235 110.519 93.8642 109.175 93.8642Z" fill="#FFAE42"/>
<path d="M34.2962 92.7752C34.4763 90.3084 34.8558 87.4562 36.918 85.1636C37.9829 83.9917 39.3545 83.1412 40.8777 82.7084C43.2555 81.9842 45.6913 82.0636 48.0246 82.4509C50.8322 82.9156 53.0589 84.5576 54.2207 87.3091C55.2392 89.7139 55.4406 92.2137 55.2315 94.818C55.063 96.9324 54.6506 98.8978 53.39 100.627C51.9707 102.586 50.0596 103.649 47.6722 104.112C45.6462 104.504 43.5611 104.473 41.5477 104.021C38.8659 103.44 36.8308 101.891 35.6187 99.4341C34.668 97.5036 34.2827 95.3931 34.2962 92.7752ZM49.3219 93.3058C49.196 92.6106 49.0334 91.9504 48.9637 91.2901C48.6829 88.5599 47.9762 87.6769 45.368 87.0864C44.8123 86.9605 44.1907 87.127 43.6001 87.1716C42.4887 87.2529 41.8226 88.041 41.3986 88.8871C40.442 90.8041 40.2871 92.903 40.6241 94.9884C40.9474 97.0292 41.4993 98.9462 44.03 99.4012C45.4144 99.6491 46.5743 99.3857 47.6199 98.5105C49.2774 97.1222 48.803 95.0639 49.3219 93.3058Z" fill="#FFAE42"/>
<path d="M59.2786 82.384C60.9206 82.384 62.4677 82.4227 64.0129 82.3685C64.8648 82.3394 64.952 82.8003 64.952 83.4509C64.952 86.7426 64.9152 90.0343 64.9675 93.326C64.9888 94.633 65.1979 95.9342 65.3296 97.2373C65.5232 99.1232 67.8603 99.799 69.0453 99.4582C71.0745 98.8773 71.5625 98.2538 71.5954 96.122C71.6438 92.0267 71.6244 87.9295 71.6341 83.8343C71.6341 82.535 71.7832 82.3898 73.0689 82.3878C74.2617 82.3878 75.4564 82.4053 76.6491 82.3878C77.381 82.3743 77.716 82.6996 77.716 83.4199C77.716 87.5481 77.8264 91.6821 77.6618 95.8122C77.5631 98.2306 76.9783 100.635 74.9413 102.301C72.4532 104.332 69.5313 104.682 66.4642 104.289C64.4795 104.036 62.6536 103.406 61.2362 101.884C60.0241 100.581 59.267 98.9993 59.2225 97.2857C59.0986 92.5476 59.1624 87.7979 59.1586 83.0636C59.1784 82.834 59.2185 82.6065 59.2786 82.384Z" fill="#FFAE42"/>
<path d="M21.8402 104.027H16.0565V103.076C16.0565 96.5937 16.07 90.1033 16.0371 83.6264C16.0371 82.6756 16.2791 82.3252 17.286 82.362C19.4159 82.4414 21.5459 82.2826 23.6758 82.4278C25.1721 82.54 26.6493 82.8332 28.075 83.3011C29.9223 83.8994 31.1208 85.3826 31.4868 87.2027C32.1393 90.4479 31.7095 93.9797 28.3713 95.8192C27.1418 96.4969 25.6082 96.6654 24.1908 96.95C23.4841 97.0914 22.7231 96.9752 21.8479 96.9752V104.027H21.8402ZM22.0338 87.0923C21.9664 87.2287 21.9107 87.3706 21.8673 87.5164C21.8583 88.4832 21.8518 89.4514 21.8479 90.4208C21.8479 92.2409 21.9099 92.2971 23.7455 92.0822C23.8104 92.0798 23.8751 92.0734 23.9391 92.0628C24.9402 91.7801 25.7476 90.9514 25.8328 90.1265C25.9471 89.0422 25.9258 87.9966 24.6226 87.5028C23.8152 87.1988 22.8897 87.2182 22.028 87.0923H22.0338Z" fill="#FFAE42"/>
<path d="M138.852 90.4539L141.689 84.3798C141.904 83.9189 142.076 83.4116 142.357 83.0108C142.55 82.7359 142.918 82.4299 143.218 82.4144C145.017 82.3583 146.82 82.3873 148.803 82.3873C148.734 82.6643 148.644 82.9355 148.534 83.1986C146.367 87.2648 144.183 91.3117 142.028 95.3779C141.843 95.7432 141.746 96.1461 141.743 96.5552C141.718 99.0027 141.729 101.452 141.729 103.981H135.921V101.094C135.921 100.255 135.843 99.4074 135.936 98.5767C136.176 96.4351 135.388 94.675 134.294 92.884C132.925 90.6379 131.839 88.2175 130.627 85.8746C130.067 84.7922 129.496 83.7156 128.797 82.3893C130.208 82.3893 131.364 82.5074 132.476 82.3622C134.368 82.1143 135.529 82.7049 136.201 84.5889C136.898 86.5078 137.878 88.3221 138.852 90.4539Z" fill="#FFAE42"/>
<path d="M87.9806 99.2408C90.461 99.2408 92.7807 99.2699 95.0965 99.2273C96.0298 99.2098 96.3686 99.5913 96.3377 100.48C96.3047 101.448 96.3686 102.416 96.3028 103.384C96.2873 103.623 95.931 104.029 95.7219 104.031C91.2491 104.07 86.7763 104.06 82.2202 104.06C82.2008 103.646 82.1737 103.303 82.1737 102.96C82.1737 96.5145 82.1872 90.0667 82.1562 83.6207C82.1562 82.6913 82.3499 82.2653 83.3839 82.366C84.5091 82.4522 85.6394 82.4522 86.7646 82.366C87.694 82.3099 88 82.6274 87.9922 83.5685C87.9535 88.3705 87.9748 93.1744 87.9748 97.9764L87.9806 99.2408Z" fill="#FFAE42"/>
<path d="M59.4729 76.2083C57.0525 76.3729 55.7842 74.4385 55.8191 72.5545C55.8558 70.6182 57.2442 68.8755 59.4729 68.9433C61.6338 69.0033 63.1402 70.4401 63.1518 72.6029C63.1634 74.7658 61.6725 76.2006 59.4729 76.2083Z" fill="#FFAE42"/>
<path d="M85.278 76.2095C83.1481 76.4438 81.663 74.2578 81.7307 72.5538C81.8043 70.7066 83.183 68.8187 85.6459 68.9136C87.5609 68.9852 89.1313 70.8809 89.1042 72.6797C89.0867 74.3217 87.6171 76.5174 85.278 76.2095Z" fill="#FFAE42"/>
<path d="M95.3891 14.383C97.4648 14.3733 99.0681 15.992 99.0913 18.0852C99.0843 19.0666 98.6933 20.0062 98.0021 20.7029C97.3108 21.3996 96.3743 21.7979 95.393 21.8125C93.5457 21.8125 91.805 20.4571 91.7489 18.1336C91.7297 17.6452 91.8099 17.1581 91.9847 16.7016C92.1594 16.2452 92.425 15.829 92.7654 15.4783C93.1058 15.1276 93.5138 14.8497 93.9648 14.6614C94.4158 14.4731 94.9004 14.3784 95.3891 14.383Z" fill="#FFAE42"/>
</g>
<defs>
<filter id="filter0_d_872_9382" x="0.492188" y="0.316406" width="149.311" height="107.27" filterUnits="userSpaceOnUse" color-interpolation-filters="sRGB">
<feFlood flood-opacity="0" result="BackgroundImageFix"/>
<feColorMatrix in="SourceAlpha" type="matrix" values="0 0 0 0 0 0 0 0 0 0 0 0 0 0 0 0 0 0 127 0" result="hardAlpha"/>
<feOffset dy="1"/>
<feGaussianBlur stdDeviation="0.5"/>
<feComposite in2="hardAlpha" operator="out"/>
<feColorMatrix type="matrix" values="0 0 0 0 0 0 0 0 0 0 0 0 0 0 0 0 0 0 0.25 0"/>
<feBlend mode="normal" in2="BackgroundImageFix" result="effect1_dropShadow_872_9382"/>
<feBlend mode="normal" in="SourceGraphic" in2="effect1_dropShadow_872_9382" result="shape"/>
</filter>
</defs>
</svg>
